<?xml version="1.0" encoding="UTF-8" standalone="no"?>
<svg width="43px" height="60px" viewBox="0 0 43 60" version="1.1" xmlns="http://www.w3.org/2000/svg" xmlns:xlink="http://www.w3.org/1999/xlink" xmlns:sketch="http://www.bohemiancoding.com/sketch/ns">
    <title>icono-yo</title>
    <description>Created with Sketch (http://www.bohemiancoding.com/sketch)</description>
    <defs></defs>
    <g id="Page-2" stroke="none" stroke-width="1" fill="none" fill-rule="evenodd" sketch:type="MSPage">
        <g id="cara-normal" sketch:type="MSLayerGroup" transform="translate(-3.000000, -4.000000)">
            <path d="M7.27596272,39.7559538 C7.27596272,39.7559538 8.03020027,28.0717344 9.98004434,24.1119465 C11.9548694,20.1014264 18.9980727,21.8122762 21.5453798,20.2514635 C24.0926869,18.6906498 29.3073327,13.4339122 31.8546395,15.6209201 C34.4019461,17.8079282 39.6103885,18.021232 39.61039,22.7232154 C39.6103913,27.4251987 43.0892483,30.3442729 43.0892483,30.3442729" id="Path-2-copy-3" stroke="#000000" stroke-width="3.24" sketch:type="MSShapeGroup"></path>
            <path d="M39.654029,51.3856814 C37.7764795,56.0151956 34.8826522,62.299326 25.6194063,62.2993233 C16.3561604,62.2993215 12.9994036,56.2746215 10.4224412,51.385683 C9.14590238,48.9638703 7.53779934,42.3972498 7.34097397,38.850753 C7.23640416,36.9665627 4.5993217,28.383603 4.992722,24.5226474 C5.5882451,18.6779938 4.92737764,15.5004486 9.91710159,12.3812183 C15.9423934,8.61462267 22.6926524,3.24311756 27.6902621,7.43187344 C33.5953301,12.3812182 36.873468,6.63842448 39.735963,13.7951055 C42.5984582,20.9517864 43.406834,20.4021853 43.406833,24.8072611 C43.4068318,29.9804657 42.2888215,36.5924616 42.2888215,36.5924616 C42.2888215,36.5924616 41.5315788,46.7561676 39.654029,51.3856814 Z M39.654029,51.3856814" id="Path-1-copy-2" stroke="#000000" stroke-width="3.24" sketch:type="MSShapeGroup"></path>
            <path d="M7.24062471,38.1039948 C7.35795564,37.9638111 7.42718463,37.8346181 7.43733801,37.7200913 C7.75009598,34.1922807 8.53817262,27.0401326 9.98004434,24.1119465 C11.9548694,20.1014264 18.9980727,21.8122762 21.5453798,20.2514635 C24.0926869,18.6906498 29.3073327,13.4339122 31.8546395,15.6209201 C34.4019461,17.8079282 39.6103885,18.021232 39.61039,22.7232154 C39.6103913,27.4251987 43.0892483,30.3442729 43.0892483,30.3442729 L43.0994919,30.3441314 C43.2737887,28.5476192 43.4068326,26.5918318 43.406833,24.8072611 C43.406834,20.4021853 42.5984582,20.9517864 39.735963,13.7951055 C36.873468,6.63842448 33.5953301,12.3812182 27.6902621,7.43187344 C22.6926524,3.24311756 15.9423934,8.61462267 9.91710159,12.3812183 C4.92737764,15.5004486 5.5882451,18.6779938 4.992722,24.5226474 C4.63832212,28.0008405 6.74332456,35.3111979 7.24062471,38.1039948 Z M7.24062471,38.1039948" id="Path-2-copy-4" fill="#000000" sketch:type="MSShapeGroup"></path>
            <path d="M22.4340051,31.0602857 C22.4340051,31.0602857 19.2104151,28.9048673 13.5204082,31.8653581" id="Path-5-copy-2" stroke="#000000" stroke-width="3.24" stroke-linecap="round" sketch:type="MSShapeGroup"></path>
            <ellipse d="M19.1989796,39.3076923 C20.841745,39.3076923 22.1734694,37.9817665 22.1734694,36.3461538 C22.1734694,34.7105412 20.841745,33.3846154 19.1989796,33.3846154 C17.5562142,33.3846154 16.2244898,34.7105412 16.2244898,36.3461538 C16.2244898,37.9817665 17.5562142,39.3076923 19.1989796,39.3076923 Z M19.1989796,39.3076923" id="Oval-1-copy-2" fill="#000000" sketch:type="MSShapeGroup" cx="19.1989796" cy="36.3461538" rx="2.9744898" ry="2.96153846"></ellipse>
            <ellipse d="M32.7193878,39.3076923 C34.3621532,39.3076923 35.6938776,37.9817665 35.6938776,36.3461538 C35.6938776,34.7105412 34.3621532,33.3846154 32.7193878,33.3846154 C31.0766223,33.3846154 29.744898,34.7105412 29.744898,36.3461538 C29.744898,37.9817665 31.0766223,39.3076923 32.7193878,39.3076923 Z M32.7193878,39.3076923" id="Oval-1-copy-3" fill="#000000" sketch:type="MSShapeGroup" cx="32.7193878" cy="36.3461538" rx="2.9744898" ry="2.96153846"></ellipse>
            <path d="M21.0918367,51.2824268 C21.0918367,51.2824268 25.131485,53.0281886 29.1711332,50.6153846" id="Path-7-copy-2" stroke="#000000" stroke-width="3.24" stroke-linecap="round" sketch:type="MSShapeGroup"></path>
            <path d="M34.6160578,56.5814736 C34.6160578,56.5814736 33.8799939,46.1144501 30.8410224,46.8868972 C27.8020508,47.6593443 25.4931474,48.8113246 21.1883812,47.6203881 C16.8836149,46.4294517 15.6836735,56.5814736 15.6836735,56.5814736" id="Path-8-copy-2" stroke="#000000" stroke-width="2.16" stroke-linecap="round" sketch:type="MSShapeGroup"></path>
            <path d="M39.2831228,31.9374323 C39.2831228,31.9374323 36.2776243,30.6923082 32.9034803,30.6923077 C29.5293364,30.6923072 27.8423816,31.3989708 27.8423816,31.3989708 L30.0258183,44.4596619 C30.0258183,44.4596619 24.3103145,45.2151198 21.6326531,43.8041031" id="Path-6-copy-2" stroke="#000000" stroke-width="3.24" stroke-linecap="round" sketch:type="MSShapeGroup"></path>
            <path d="M35.1918156,57.4061631 C34.877574,56.8405007 30.6894681,57.4435747 29.0117704,57.0141971 C27.4009529,56.6019364 27.984237,54.6036339 25.1747386,54.6036341 C22.6934866,54.6036342 23.2517276,56.0725709 20.9461453,57.0141971 C18.640563,57.9558234 15.1428571,57.4061631 15.1428571,57.4061631 L22.0873593,61.5929135 L26.6405933,62.6179533 L30.7131878,61.1538194 C30.7131878,61.1538194 35.5060574,57.9718254 35.1918156,57.4061631 Z M35.1918156,57.4061631" id="Path-11-copy-2" fill="#000000" sketch:type="MSShapeGroup"></path>
            <path d="M25.1380321,30.6923077 L24.877551,32.7531872" id="Path-12-copy-2" stroke="#000000" stroke-width="1.62" stroke-linecap="round" sketch:type="MSShapeGroup"></path>
            <path d="M13.3526411,46.298631 L11.2670738,49.8526072" id="Path-58-copy-2" stroke="#000000" stroke-width="1.62" stroke-linecap="round" sketch:type="MSShapeGroup"></path>
            <path d="M15.6089696,48.2551 C15.6089696,48.2551 13.0988876,51.6795922 12.3984119,53.7381821" id="Path-57-copy-2" stroke="#000000" stroke-width="1.62" stroke-linecap="round" sketch:type="MSShapeGroup"></path>
            <path d="M11.4795955,44.9453619 L9.84233271,46.7160337" id="Path-59-copy-2" stroke="#000000" stroke-width="1.62" stroke-linecap="round" sketch:type="MSShapeGroup"></path>
            <path d="M38.964951,44.7282088 L36.8793837,48.282185" id="Path-58-copy-2" stroke="#000000" stroke-width="1.62" stroke-linecap="round" sketch:type="MSShapeGroup" transform="translate(37.922167, 46.505197) scale(-1, 1) translate(-37.922167, -46.505197) "></path>
            <path d="M37.9013193,46.0791055 C37.9013193,46.0791055 35.3912374,49.5035976 34.6907617,51.5621876" id="Path-57-copy-2" stroke="#000000" stroke-width="1.62" stroke-linecap="round" sketch:type="MSShapeGroup" transform="translate(36.296041, 48.820647) scale(-1, 1) translate(-36.296041, -48.820647) "></path>
        </g>
    </g>
</svg>