<?xml version="1.0" encoding="UTF-8" standalone="no"?>
<svg width="67px" height="75px" viewBox="0 0 67 75" version="1.1" xmlns="http://www.w3.org/2000/svg" xmlns:xlink="http://www.w3.org/1999/xlink" xmlns:sketch="http://www.bohemiancoding.com/sketch/ns">
    <title>icono-yo</title>
    <description>Created with Sketch (http://www.bohemiancoding.com/sketch)</description>
    <defs></defs>
    <g id="Page-2" stroke="none" stroke-width="1" fill="none" fill-rule="evenodd" sketch:type="MSPage">
        <g id="cara-saludando" sketch:type="MSLayerGroup" transform="translate(2.000000, 2.000000)">
            <path d="M13.7058206,48.6311201 C13.7058206,48.6311201 14.4567741,36.8841497 16.3981283,32.9030956 C18.3643548,28.8710367 25.376891,30.5910747 27.9131068,29.0218795 C30.4493225,27.4526833 35.641263,22.1677141 38.1774785,24.3664674 C40.7136938,26.5652211 45.8994579,26.7796704 45.8994594,31.5069061 C45.8994607,36.2341418 49.3631703,39.168893 49.3631703,39.168893" id="Path-2-copy-4" stroke="#000000" stroke-width="3.24" sketch:type="MSShapeGroup"></path>
            <path d="M45.9429084,60.3233059 C44.073534,64.9776832 41.1923068,71.2955629 31.9693944,71.2955602 C22.7464819,71.2955584 19.4043409,65.2385024 16.838599,60.3233075 C15.5676183,57.8884883 13.9665172,51.2866013 13.7705488,47.7210578 C13.6664343,45.8267483 11.0408341,37.1976932 11.4325215,33.3160021 C12.0254516,27.4399594 11.3674616,24.245349 16.3354596,21.1093666 C22.3345165,17.3225422 29.055384,11.9221891 34.0312334,16.133441 C39.91059,21.1093665 43.1744543,15.3357307 46.0244857,22.5308472 C48.8745171,29.7259635 49.6793732,29.1734108 49.6793722,33.6021444 C49.679371,38.803132 48.5662287,45.4506381 48.5662287,45.4506381 C48.5662287,45.4506381 47.8122831,55.6689289 45.9429084,60.3233059 Z M45.9429084,60.3233059" id="Path-1-copy-3" stroke="#000000" stroke-width="3.24" sketch:type="MSShapeGroup"></path>
            <path d="M13.6706365,46.9702891 C13.7874566,46.8293525 13.8563841,46.6994657 13.8664933,46.5843238 C14.1778895,43.0375668 14.9625347,35.8470076 16.3981283,32.9030956 C18.3643548,28.8710367 25.376891,30.5910747 27.9131068,29.0218795 C30.4493225,27.4526833 35.641263,22.1677141 38.1774785,24.3664674 C40.7136938,26.5652211 45.8994579,26.7796704 45.8994594,31.5069061 C45.8994607,36.2341418 49.3631703,39.168893 49.3631703,39.168893 L49.3733693,39.1687508 C49.5469072,37.3625903 49.6793717,35.3962992 49.6793722,33.6021444 C49.6793732,29.1734108 48.8745171,29.7259635 46.0244857,22.5308472 C43.1744543,15.3357307 39.91059,21.1093665 34.0312334,16.133441 C29.055384,11.9221891 22.3345165,17.3225422 16.3354596,21.1093666 C11.3674616,24.245349 12.0254516,27.4399594 11.4325215,33.3160021 C11.0796647,36.8128751 13.1755017,44.1624932 13.6706365,46.9702891 Z M13.6706365,46.9702891" id="Path-2-copy-5" fill="#000000" sketch:type="MSShapeGroup"></path>
            <path d="M28.7978629,36.640631 C28.7978629,36.640631 25.5883088,36.6390503 19.9230769,39.6154406" id="Path-5-copy-3" stroke="#000000" stroke-width="3.24" stroke-linecap="round" sketch:type="MSShapeGroup"></path>
            <ellipse d="M25.5769231,47.0977444 C27.2125357,47.0977444 28.5384615,45.7646975 28.5384615,44.1203008 C28.5384615,42.475904 27.2125357,41.1428571 25.5769231,41.1428571 C23.9413105,41.1428571 22.6153846,42.475904 22.6153846,44.1203008 C22.6153846,45.7646975 23.9413105,47.0977444 25.5769231,47.0977444 Z M25.5769231,47.0977444" id="Oval-1-copy-3" fill="#000000" sketch:type="MSShapeGroup" cx="25.5769231" cy="44.1203008" rx="2.96153846" ry="2.97744361"></ellipse>
            <ellipse d="M39.0384615,47.0977444 C40.6740741,47.0977444 42,45.7646975 42,44.1203008 C42,42.475904 40.6740741,41.1428571 39.0384615,41.1428571 C37.4028489,41.1428571 36.0769231,42.475904 36.0769231,44.1203008 C36.0769231,45.7646975 37.4028489,47.0977444 39.0384615,47.0977444 Z M39.0384615,47.0977444" id="Oval-1-copy-4" fill="#000000" sketch:type="MSShapeGroup" cx="39.0384615" cy="44.1203008" rx="2.96153846" ry="2.97744361"></ellipse>
            <path d="M41.4653348,66.6297092 C41.4653348,66.6297092 41.5837675,56.341714 37.7067363,56.341714 C33.8297052,56.341714 32.3095903,55.5179679 27.5576625,54.9137307 C22.7951978,54.3081535 22.0769231,66.6297092 22.0769231,66.6297092" id="Path-8-copy-3" stroke="#000000" stroke-width="2.16" stroke-linecap="round" sketch:type="MSShapeGroup"></path>
            <path d="M45.5736171,40.7706087 C45.5736171,40.7706087 43.6581281,37.8947373 40.2986756,37.8947368 C36.9392232,37.8947364 35.2596136,38.6051951 35.2596136,38.6051951 L36.3566202,52.8187364 C36.3566202,52.8187364 31.2044641,52.4955447 28.5384615,51.0769501" id="Path-6-copy-3" stroke="#000000" stroke-width="3.24" stroke-linecap="round" sketch:type="MSShapeGroup"></path>
            <path d="M41.5001241,68.5415345 C41.1872507,67.9728342 37.0173804,68.579147 35.3469877,68.1474635 C33.7431839,67.7329887 34.3239282,65.7239542 31.5266628,65.7239544 C29.0562145,65.7239545 29.6120249,67.2007802 27.3164814,68.1474635 C25.0209379,69.0941468 21.5384615,68.5415345 21.5384615,68.5415345 L27.3758033,70.5853566 L31.9092119,71.6159015 L35.9640738,70.1439044 C35.9640738,70.1439044 41.8129976,69.1102348 41.5001241,68.5415345 Z M41.5001241,68.5415345" id="Path-11-copy-3" fill="#000000" sketch:type="MSShapeGroup"></path>
            <path d="M32.0285777,35.7293233 L31.7692308,37.8012709" id="Path-12-copy-3" stroke="#000000" stroke-width="1.62" stroke-linecap="round" sketch:type="MSShapeGroup"></path>
            <path d="M19.2175788,54.6675818 L17.6795539,58.7819983" id="Path-58-copy-3" stroke="#000000" stroke-width="1.62" stroke-linecap="round" sketch:type="MSShapeGroup"></path>
            <path d="M21.4640829,56.0932048 C21.4640829,56.0932048 20.0418533,60.6187952 19.3444275,62.6884409" id="Path-57-copy-3" stroke="#000000" stroke-width="1.62" stroke-linecap="round" sketch:type="MSShapeGroup"></path>
            <path d="M17.3526887,53.3070449 L16.2610163,55.6285796" id="Path-59-copy-3" stroke="#000000" stroke-width="1.62" stroke-linecap="round" sketch:type="MSShapeGroup"></path>
            <path d="M45.2568307,53.6300789 L43.1803443,57.203142" id="Path-58-copy-3" stroke="#000000" stroke-width="1.62" stroke-linecap="round" sketch:type="MSShapeGroup" transform="translate(44.218588, 55.416610) scale(-1, 1) translate(-44.218588, -55.416610) "></path>
            <path d="M44.1978303,54.9882307 C44.1978303,54.9882307 41.6986776,58.9724677 41.0012518,61.0421134" id="Path-57-copy-3" stroke="#000000" stroke-width="1.62" stroke-linecap="round" sketch:type="MSShapeGroup" transform="translate(42.599541, 58.015172) scale(-1, 1) translate(-42.599541, -58.015172) "></path>
            <path d="M37.6923077,58.8982209 C37.6923077,58.8982209 31.7560752,58.6074888 28.5669253,57.8304588 C24.3594437,56.8053142 25.9909336,64.2274621 37.2037592,64.2274623" id="Path-106-copy" stroke="#000000" stroke-width="1.62" stroke-linecap="round" stroke-linejoin="round" sketch:type="MSShapeGroup"></path>
            <path d="M33.001987,58.5812986 C33.001987,58.5812986 35.8833354,61.2059727 35.5931799,63.8557898" id="Path-107-copy" stroke="#000000" stroke-width="1.62" stroke-linecap="round" sketch:type="MSShapeGroup"></path>
            <path d="M15.9860267,2.92797189 L20.6505693,10.8227982" id="Path-125" stroke="#000000" stroke-width="3.24" stroke-linecap="round" sketch:type="MSShapeGroup"></path>
            <path d="M37.15103,0.194875871 L35.9879665,7.40135379" id="Path-126" stroke="#000000" stroke-width="3.24" stroke-linecap="round" sketch:type="MSShapeGroup"></path>
            <path d="M53.5544367,7.40135379 L48.5668697,14.4225071" id="Path-127" stroke="#000000" stroke-width="3.24" stroke-linecap="round" sketch:type="MSShapeGroup"></path>
            <path d="M62.6782648,21.2301237 L55.7832737,23.82555" id="Path-128" stroke="#000000" stroke-width="3.24" stroke-linecap="round" sketch:type="MSShapeGroup"></path>
            <path d="M0.52272625,14.4225071 L8.11204421,19.0635636" id="Path-124" stroke="#000000" stroke-width="3.24" stroke-linecap="round" sketch:type="MSShapeGroup"></path>
        </g>
    </g>
</svg>